HIERARCHY
ROOT Hips
{
	OFFSET 0.00000 0.00000 0.00000
	CHANNELS 6 Xposition Yposition Zposition Zrotation Yrotation Xrotation 
	JOINT LHipJoint
	{
		OFFSET 0 0 0
		CHANNELS 3 Zrotation Yrotation Xrotation
		JOINT LeftUpLeg
		{
			OFFSET 1.37959 -1.78713 0.86582
			CHANNELS 3 Zrotation Yrotation Xrotation
			JOINT LeftLeg
			{
				OFFSET 2.54611 -6.99539 0.00000
				CHANNELS 3 Zrotation Yrotation Xrotation
				JOINT LeftFoot
				{
					OFFSET 2.59951 -7.14211 0.00000
					CHANNELS 3 Zrotation Yrotation Xrotation
					JOINT LeftToeBase
					{
						OFFSET 0.18493 -0.50810 1.96120
						CHANNELS 3 Zrotation Yrotation Xrotation
						End Site
						{
							OFFSET 0.00000 -0.00000 1.02054
						}
					}
				}
			}
		}
	}
	JOINT RHipJoint
	{
		OFFSET 0 0 0
		CHANNELS 3 Zrotation Yrotation Xrotation
		JOINT RightUpLeg
		{
			OFFSET -1.33564 -1.78713 0.86582
			CHANNELS 3 Zrotation Yrotation Xrotation
			JOINT RightLeg
			{
				OFFSET -2.52705 -6.94302 0.00000
				CHANNELS 3 Zrotation Yrotation Xrotation
				JOINT RightFoot
				{
					OFFSET -2.55964 -7.03257 0.00000
					CHANNELS 3 Zrotation Yrotation Xrotation
					JOINT RightToeBase
					{
						OFFSET -0.25804 -0.70896 2.12109
						CHANNELS 3 Zrotation Yrotation Xrotation
						End Site
						{
							OFFSET -0.00000 -0.00000 1.11821
						}
					}
				}
			}
		}
	}
	JOINT LowerBack
	{
		OFFSET 0 0 0
		CHANNELS 3 Zrotation Yrotation Xrotation
		JOINT Spine
		{
			OFFSET -0.02031 2.24248 -0.18900
			CHANNELS 3 Zrotation Yrotation Xrotation
			JOINT Spine1
			{
				OFFSET 0.08342 2.24689 -0.03799
				CHANNELS 3 Zrotation Yrotation Xrotation
				JOINT Neck
				{
					OFFSET 0 0 0
					CHANNELS 3 Zrotation Yrotation Xrotation
					JOINT Neck1
					{
						OFFSET -0.11607 1.55844 0.24628
						CHANNELS 3 Zrotation Yrotation Xrotation
						JOINT Head
						{
							OFFSET 0.06877 1.60174 -0.17013
							CHANNELS 3 Zrotation Yrotation Xrotation
							End Site
							{
								OFFSET 0.03358 1.61266 -0.08543
							}
						}
					}
				}
				JOINT LeftShoulder
				{
					OFFSET 0 0 0
					CHANNELS 3 Zrotation Yrotation Xrotation
					JOINT LeftArm
					{
						OFFSET 3.47537 0.55866 -0.72348
						CHANNELS 3 Zrotation Yrotation Xrotation
						JOINT LeftForeArm
						{
							OFFSET 5.38154 -0.00000 0.00000
							CHANNELS 3 Zrotation Yrotation Xrotation
							JOINT LeftHand
							{
								OFFSET 3.33312 -0.00000 0.00000
								CHANNELS 3 Zrotation Yrotation Xrotation
								JOINT LeftFingerBase
								{
									OFFSET 0 0 0
									CHANNELS 3 Zrotation Yrotation Xrotation
									JOINT LeftHandIndex1
									{
										OFFSET 0.71079 -0.00000 0.00000
										CHANNELS 3 Zrotation Yrotation Xrotation
										End Site
										{
											OFFSET 0.57306 -0.00000 0.00000
										}
									}
								}
								JOINT LThumb
								{
									OFFSET 0 0 0
									CHANNELS 3 Zrotation Yrotation Xrotation
									End Site
									{
										OFFSET 0.58181 -0.00000 0.58181
									}
								}
							}
						}
					}
				}
				JOINT RightShoulder
				{
					OFFSET 0 0 0
					CHANNELS 3 Zrotation Yrotation Xrotation
					JOINT RightArm
					{
						OFFSET -3.27844 0.90739 -0.35708
						CHANNELS 3 Zrotation Yrotation Xrotation
						JOINT RightForeArm
						{
							OFFSET -5.16954 -0.00000 0.00000
							CHANNELS 3 Zrotation Yrotation Xrotation
							JOINT RightHand
							{
								OFFSET -3.38287 -0.00000 0.00000
								CHANNELS 3 Zrotation Yrotation Xrotation
								JOINT RightFingerBase
								{
									OFFSET 0 0 0
									CHANNELS 3 Zrotation Yrotation Xrotation
									JOINT RightHandIndex1
									{
										OFFSET -0.81797 -0.00000 0.00000
										CHANNELS 3 Zrotation Yrotation Xrotation
										End Site
										{
											OFFSET -0.65947 -0.00000 0.00000
										}
									}
								}
								JOINT RThumb
								{
									OFFSET 0 0 0
									CHANNELS 3 Zrotation Yrotation Xrotation
									End Site
									{
										OFFSET -0.66953 -0.00000 0.66953
									}
								}
							}
						}
					}
				}
			}
		}
	}
}
MOTION
Frames: 15
Frame Time: .0083333
7.0830 8.3678 5.4893 175.3670 -65.3667 -191.8050 0.0000 0.0000 0.0000 13.5487 30.8511 -66.0727 36.0835 12.0484 144.0964 -4.1124 -49.1951 -21.7221 0.4883 -4.4805 -12.4325 0.0000 0.0000 0.0000 -5.7414 -19.0106 -84.9867 -36.7726 -11.0543 147.5366 4.2674 34.4477 6.1034 -0.6438 -5.1332 14.2889 -0.0768 2.1931 45.3833 5.3137 -0.9438 16.2916 6.1536 -2.4275 -2.6734 -2.8652 19.9888 -11.8127 -10.0754 29.0357 11.6261 0.0960 13.2782 6.5924 0.0000 -0.0000 0.0000 -78.3617 -17.4349 -5.3678 42.7263 -49.6047 -20.4921 -0.0000 0.0000 -34.2831 3.7709 43.5551 2.6003 -7.1250 0.0000 -0.0000 -47.2925 67.9419 -28.4322 0.0000 -0.0000 0.0000 100.2679 -21.6022 43.8088 -17.0424 26.9136 -4.1065 0.0000 -0.0000 -17.0508 -59.1399 40.4008 -47.3255 7.1250 -0.0000 -0.0000 -10.9939 28.1205 -15.0557
7.0781 8.3848 5.3874 179.4840 -65.5519 -195.7520 0.0000 0.0000 0.0000 16.8066 31.4853 -65.6445 36.0911 12.0382 144.1328 -3.6780 -49.3796 -23.4968 0.7602 -5.5681 -15.5362 0.0000 0.0000 0.0000 -5.3046 -17.5387 -83.5879 -36.5736 -11.3553 146.5122 3.5608 32.9790 1.2805 -0.1895 -2.8035 7.7321 1.4111 1.9612 46.0826 5.9683 -0.6050 16.2245 5.9897 -2.2635 -2.9278 -2.8808 20.0761 -12.0294 -10.6687 29.2093 11.0743 -0.0395 13.3454 6.5486 -0.0000 0.0000 0.0000 -78.1265 -18.0621 -4.7447 44.1264 -50.3333 -21.5642 -0.0000 0.0000 -34.1112 3.1676 42.8817 2.1567 -7.1250 0.0000 -0.0000 -46.6245 67.3054 -27.3292 -0.0000 0.0000 0.0000 100.1963 -20.6261 42.5287 -15.7756 25.2154 -3.5498 0.0000 -0.0000 -14.4031 -55.1248 40.7490 -43.1236 7.1250 -0.0000 -0.0000 -8.9788 25.9091 -12.1006
7.0722 8.4154 5.3008 183.4060 -65.7801 -199.3460 0.0000 0.0000 0.0000 19.0549 31.1654 -65.9576 36.1007 12.0252 144.1790 -3.8209 -49.1135 -22.6805 0.7109 -5.3886 -15.0203 0.0000 0.0000 0.0000 -5.0150 -16.0697 -81.8569 -36.3172 -11.7259 145.2309 2.9711 32.1449 -3.1552 -0.0002 0.0920 -0.2526 3.1118 1.4377 47.0793 6.4065 -0.4015 15.7919 5.5610 -2.1144 -3.6181 -3.0086 20.1608 -11.9868 -11.1135 29.3025 10.2483 -0.1840 13.4215 6.3318 0.0000 -0.0000 0.0000 -77.9180 -18.3174 -4.2851 45.7722 -51.1412 -22.8385 -0.0000 0.0000 -33.8910 2.4618 42.3816 1.6599 -7.1250 0.0000 -0.0000 -46.4106 66.7520 -26.6275 0.0000 -0.0000 0.0000 99.8144 -20.0913 41.3338 -14.8162 23.8895 -3.1511 0.0000 -0.0000 -11.4750 -50.7625 40.7057 -38.6100 7.1250 -0.0000 -0.0000 -6.9721 23.3742 -9.2153
7.0649 8.4294 5.2253 182.5230 -66.2955 -198.3430 0.0000 0.0000 0.0000 17.9560 29.6368 -66.5441 36.1118 12.0102 144.2320 -3.5240 -47.5044 -21.9153 0.6408 -5.1214 -14.2550 0.0000 0.0000 0.0000 -5.9186 -16.7601 -80.5320 -36.0981 -12.0288 144.1662 1.8457 32.2172 -12.2523 -1.4652 7.6498 -21.6553 3.1408 1.3689 48.9910 6.3728 -0.1991 14.2607 5.5712 -2.0127 -4.5093 -3.0069 20.2027 -11.7957 -11.4868 29.3348 9.7403 -0.3235 13.4582 6.1990 0.0000 -0.0000 0.0000 -78.0762 -18.5336 -4.2679 47.6143 -51.9868 -24.2815 -0.0000 0.0000 -33.1396 1.8536 42.1954 1.2452 -7.1250 0.0000 -0.0000 -46.6640 66.4423 -26.4850 0.0000 -0.0000 0.0000 98.8593 -19.5697 40.7324 -13.8940 22.5829 -2.7873 0.0000 -0.0000 -8.5411 -46.0736 40.6389 -34.0652 7.1250 -0.0000 -0.0000 -4.7948 20.9241 -6.2075
7.0756 8.4897 5.1279 178.7370 -66.7149 -194.6560 0.0000 0.0000 0.0000 15.5333 28.6212 -66.9478 36.0418 12.1046 143.8969 -3.3684 -46.0232 -20.8085 0.5828 -4.8880 -13.5895 0.0000 0.0000 0.0000 -10.5946 -14.5243 -79.8931 -35.7912 -12.4332 142.7179 4.2141 37.0667 -2.7378 -0.1412 2.4214 -6.6718 1.5740 2.1266 49.6397 6.4296 0.0875 13.9712 6.2926 -1.9009 -5.0030 -3.1498 20.2653 -11.8916 -11.9461 29.4645 9.3182 -0.4246 13.5098 6.1396 -0.0000 0.0000 0.0000 -77.0049 -18.7473 -2.6949 48.6147 -52.4213 -25.0720 -0.0000 0.0000 -34.5463 2.8389 41.6595 1.8879 -7.1250 0.0000 -0.0000 -44.8323 66.3688 -25.1923 -0.0000 0.0000 0.0000 97.9413 -18.4304 39.5897 -12.9622 21.2318 -2.4396 0.0000 -0.0000 -4.3391 -40.4687 40.6728 -29.0750 7.1250 -0.0000 -0.0000 -2.1049 18.4739 -2.6649
7.0743 8.5295 5.0360 177.1310 -67.1132 -193.2730 0.0000 0.0000 0.0000 14.8800 27.2187 -66.9849 36.0213 12.1320 143.7996 -3.8955 -45.6026 -18.1503 0.3079 -3.5676 -9.8632 0.0000 0.0000 0.0000 -12.8349 -13.4924 -78.3474 -35.6082 -12.6643 141.8757 5.9336 40.5199 3.1108 -0.0005 0.1416 -0.3890 1.2259 2.3874 50.4091 6.4511 0.2510 13.8428 6.4409 -1.8418 -5.2740 -3.9371 20.2979 -12.5547 -11.6091 29.5787 8.9950 -0.2206 13.5688 5.9834 -0.0000 0.0000 0.0000 -76.6956 -19.6020 -2.5871 50.2953 -53.1139 -26.4102 -0.0000 0.0000 -33.8851 2.0719 41.3730 1.3698 -7.1250 0.0000 -0.0000 -45.0948 65.9418 -24.9419 -0.0000 0.0000 0.0000 96.9644 -16.7232 38.9421 -12.1064 19.9640 -2.1385 0.0000 -0.0000 -0.3179 -34.0944 40.6876 -23.8118 7.1250 -0.0000 -0.0000 1.0027 16.0878 1.2415
7.0548 8.5687 4.9674 175.0180 -67.8931 -191.8110 0.0000 0.0000 0.0000 13.6249 24.3642 -66.1353 35.9832 12.1827 143.6187 -3.9651 -44.3844 -16.2762 0.0780 -1.8014 -4.9572 0.0000 0.0000 0.0000 -15.0564 -13.8831 -75.8885 -35.5326 -12.7577 141.5320 6.9938 43.1436 3.8554 -0.0427 1.3344 -3.6694 1.3631 2.2281 51.4011 6.1289 0.1265 13.6551 6.1063 -1.8807 -5.5746 -3.7587 20.2236 -12.7617 -11.5936 29.4451 8.8174 -0.2344 13.5150 5.9745 0.0000 -0.0000 0.0000 -76.1927 -20.3631 -2.3205 52.0975 -53.8072 -27.8582 -0.0000 0.0000 -32.3882 0.7128 41.1285 0.4689 -7.1250 0.0000 -0.0000 -45.9912 65.3752 -24.9530 0.0000 -0.0000 0.0000 96.4621 -14.8617 37.3179 -11.1423 18.5061 -1.8208 0.0000 0.0000 4.2601 -26.9659 40.5908 -18.3164 7.1250 -0.0000 -0.0000 4.5117 13.7721 5.4708
7.0401 8.5787 4.8913 173.3720 -68.2297 -190.3300 0.0000 0.0000 0.0000 12.2400 22.6050 -66.2343 35.9955 12.1664 143.6767 -2.3615 -41.1898 -19.6593 0.4432 -4.2716 -11.8422 0.0000 0.0000 0.0000 -15.9799 -14.0810 -74.3621 -35.5577 -12.7268 141.6456 7.5071 44.7837 2.5727 -0.0752 1.7695 -4.8691 1.0887 2.3504 51.8338 5.9661 0.1770 13.4670 6.0531 -1.8363 -5.8402 -2.8531 20.1010 -12.5462 -12.1512 29.2053 8.7145 -0.4946 13.3925 6.1096 0.0000 -0.0000 0.0000 -75.6720 -20.7841 -2.2603 53.7220 -54.3906 -29.1741 -0.0000 0.0000 -30.6932 -1.8621 40.8971 -1.2194 -7.1250 0.0000 -0.0000 -48.0338 64.4801 -25.3341 0.0000 -0.0000 0.0000 94.8331 -13.7930 38.1977 -10.8063 17.9908 -1.7156 0.0000 0.0000 6.5375 -19.0811 40.0532 -12.5491 7.1250 -0.0000 -0.0000 8.3761 11.2836 9.9490
7.0699 8.6258 4.8944 167.0770 -69.9482 -184.5520 0.0000 0.0000 0.0000 6.2155 14.1519 -66.3357 35.9138 12.2742 143.2911 -0.3616 -34.2438 -22.6030 1.1297 -6.7508 -18.9792 0.0000 0.0000 0.0000 -19.0800 -16.8601 -72.1951 -35.4779 -12.8245 141.2850 7.9837 46.8706 -0.2894 -0.1019 2.0588 -5.6682 0.6057 1.5656 53.6125 5.3233 -0.8660 12.5713 6.0861 -2.2270 -6.9205 -3.2204 20.1827 -12.5293 -11.9016 29.3072 8.5748 -0.4052 13.4684 5.9758 -0.0000 0.0000 0.0000 -74.5869 -20.7475 -1.5021 55.3503 -54.9379 -30.5025 -0.0000 0.0000 -30.1132 -3.6137 40.2616 -2.3373 -7.1250 0.0000 -0.0000 -48.6935 63.5621 -24.7525 -0.0000 0.0000 0.0000 93.2519 -12.9226 38.3850 -10.4870 17.4977 -1.6183 0.0000 0.0000 9.5806 -10.5240 38.3810 -6.5796 7.1250 -0.0000 -0.0000 12.5306 8.0585 14.4908
7.0325 8.5776 4.7223 173.0900 -67.8207 -189.1160 0.0000 0.0000 0.0000 12.9525 23.8604 -67.2933 36.0463 12.0985 143.9186 -1.7117 -40.1841 -21.5437 0.7375 -5.4862 -15.3008 0.0000 0.0000 0.0000 -12.8827 -14.1243 -73.8663 -35.7094 -12.5374 142.3394 4.4057 42.8187 -11.9557 -0.7134 5.3978 -15.0466 0.9288 2.7906 51.5500 5.8500 0.8004 13.0311 5.7485 -1.4561 -6.3519 -3.9872 20.1555 -12.7044 -11.0798 29.2793 8.6729 -0.1282 13.4885 5.7974 0.0000 0.0000 0.0000 -73.9421 -21.0927 -0.8891 56.7752 -55.3875 -31.6721 -0.0000 0.0000 -29.1661 -3.0180 39.8761 -1.9360 -7.1250 0.0000 -0.0000 -47.5855 63.4623 -23.9483 0.0000 0.0000 0.0000 91.5219 -11.7543 38.8216 -10.1782 17.0179 -1.5267 0.0000 0.0000 11.6449 -5.9861 37.8032 -3.6775 7.1250 -0.0000 -0.0000 14.8261 6.8661 17.0410
7.0232 8.5420 4.6575 178.7250 -67.3575 -193.6930 0.0000 0.0000 0.0000 17.0798 25.2138 -68.2313 36.1708 11.9296 144.5168 -2.3288 -42.0575 -20.7336 0.5578 -4.7841 -13.2937 0.0000 0.0000 0.0000 -7.1531 -13.8163 -73.3155 -35.7687 -12.4620 142.6135 -0.4856 34.4764 -26.7496 -3.6203 11.6372 -34.4604 3.2468 2.1554 50.9030 5.9226 1.2526 12.9270 4.5439 -1.1686 -6.3332 -4.1519 20.1088 -12.6384 -10.9841 29.2011 8.5616 -0.1154 13.4666 5.7110 0.0000 0.0000 0.0000 -73.3991 -21.7707 -0.5473 57.6142 -55.6399 -32.3636 -0.0000 0.0000 -27.4057 -2.2266 39.5560 -1.4184 -7.1250 0.0000 -0.0000 -46.3933 63.4561 -23.2063 0.0000 0.0000 0.0000 90.0642 -10.5574 38.4331 -9.8023 16.4298 -1.4185 0.0000 0.0000 14.4653 -6.1259 37.1529 -3.7087 7.1250 -0.0000 -0.0000 14.7069 6.2575 16.7565
7.0204 8.5387 4.5839 183.8220 -66.7088 -197.7970 0.0000 0.0000 0.0000 20.0875 26.9345 -67.9258 36.1046 12.0199 144.1976 -1.1206 -41.4300 -25.2239 1.4860 -7.7015 -21.8111 0.0000 0.0000 0.0000 -4.0834 -11.0578 -74.2092 -35.9312 -12.2514 143.3728 1.7006 37.3630 -18.7780 -0.9376 6.1676 -17.2716 5.3280 1.6522 50.1630 6.0231 1.6864 12.8785 3.4880 -0.9047 -6.1964 -3.8632 20.0267 -12.6798 -11.1780 29.0855 8.5990 -0.1891 13.3933 5.7952 0.0000 -0.0000 0.0000 -72.7371 -22.5878 -0.4003 57.9555 -55.7401 -32.6456 -0.0000 0.0000 -25.3082 -2.6701 38.8139 -1.6743 -7.1250 0.0000 -0.0000 -45.7749 62.8147 -22.1521 0.0000 -0.0000 0.0000 88.3519 -9.3687 38.5562 -9.5652 16.0566 -1.3522 0.0000 0.0000 16.4151 -4.0712 36.2759 -2.4115 7.1250 -0.0000 -0.0000 15.7277 5.1748 17.7373
7.0056 8.5348 4.5344 183.8780 -66.9399 -197.2990 0.0000 0.0000 0.0000 19.8869 24.5568 -68.0585 36.0646 12.0739 144.0060 -0.6857 -40.4221 -26.1483 1.9302 -8.7191 -24.9205 0.0000 0.0000 0.0000 -3.3387 -11.2639 -74.8229 -36.0370 -12.1110 143.8743 0.8232 34.6795 -20.6636 -1.2660 7.1320 -20.1070 5.9799 1.3281 49.5837 5.6876 1.6640 12.7182 2.8150 -0.8297 -6.2321 -3.3535 19.8419 -12.9594 -11.2628 28.8388 8.8968 -0.2276 13.2347 6.0074 -0.0000 -0.0000 0.0000 -72.0653 -23.3969 -0.1605 58.2425 -55.8231 -32.8829 -0.0000 0.0000 -23.6618 -2.7379 38.1781 -1.6931 -7.1250 0.0000 -0.0000 -44.9873 62.3434 -21.1930 -0.0000 -0.0000 0.0000 86.5936 -8.3746 37.8266 -9.5176 15.9815 -1.3391 0.0000 0.0000 17.5642 -0.2673 35.1437 -0.1539 7.1250 -0.0000 -0.0000 17.6820 3.7264 19.7321
6.9970 8.5517 4.4471 178.3700 -68.1809 -191.9140 0.0000 0.0000 0.0000 16.6977 18.7782 -67.5042 35.9487 12.2283 143.4554 -1.3678 -40.2830 -23.1498 1.1453 -6.7958 -19.1117 0.0000 0.0000 0.0000 -5.3982 -14.6812 -75.3608 -36.1728 -11.9268 144.5266 0.4546 34.1796 -22.0931 -1.4103 7.5113 -21.2394 4.2830 1.6083 49.3759 5.2927 1.2884 12.5433 3.3215 -0.9543 -6.4742 -3.1386 19.7462 -13.2315 -11.6905 28.7544 8.8283 -0.3341 13.1492 6.1228 0.0000 0.0000 0.0000 -71.6800 -24.1732 -0.0225 58.4248 -55.8754 -33.0337 -0.0000 0.0000 -22.1708 -2.5199 37.7067 -1.5419 -7.1250 0.0000 -0.0000 -44.1704 62.0594 -20.4295 0.0000 0.0000 0.0000 84.6341 -7.5324 37.1702 -9.6098 16.1269 -1.3646 0.0000 0.0000 17.7495 2.5061 33.4708 1.3827 7.1250 -0.0000 -0.0000 19.1285 1.9356 20.9516
7.0144 8.6539 4.2834 149.6550 -69.1553 -163.8870 0.0000 0.0000 0.0000 1.0984 5.8805 -66.6741 35.4946 12.8042 141.3601 -0.6733 -34.7888 -21.5097 0.4312 -4.2142 -11.6800 0.0000 0.0000 0.0000 -18.3795 -25.4847 -77.8222 -36.3684 -11.6533 145.4837 2.0577 40.3716 -20.1714 -1.1863 6.9121 -19.4553 -4.9349 3.9193 48.6087 3.8837 -0.1216 12.0610 6.7126 -1.5293 -6.9096 -2.8568 19.7600 -13.3196 -12.4221 28.8118 8.5609 -0.5358 13.1349 6.2090 -0.0000 0.0000 0.0000 -71.3852 -25.0803 0.1823 58.0605 -55.7706 -32.7324 -0.0000 0.0000 -20.6602 -2.1497 37.0534 -1.2957 -7.1250 0.0000 -0.0000 -42.9976 61.6752 -19.3821 -0.0000 0.0000 0.0000 82.7393 -6.8981 36.7161 -9.8049 16.4338 -1.4193 0.0000 0.0000 17.1682 3.1695 31.8457 1.6735 7.1250 -0.0000 -0.0000 19.4985 0.3577 20.8638
